{"title":"The Newsroom 2012 S02E09 HDTV x264 AAC E-Subs [GWC].mp4","uid":8924393,"size":179338592,"categoryP":"video","categoryS":"tv_shows","magnet":"?xt=urn:btih:d0426fcde3eb8038a0bbddbf0d1b139f831520ea&amp;dn=The+Newsroom+2012+S02E09+HDTV+x264+AAC+E-Subs+%5BGWC%5D.mp4&amp;tr=udp%3A%2F%2Ftracker.openbittorrent.com%3A80&amp;tr=udp%3A%2F%2Fopen.demonii.com%3A1337&amp;tr=udp%3A%2F%2Ftracker.coppersurfer.tk%3A6969&amp;tr=udp%3A%2F%2Fexodus.desync.com%3A6969","seeders":1,"leechers":0,"uploader":"canc232","files":1,"time":1379331423,"description":"The Newsroom 2012 S02E09 HDTV x264 AAC E-Subs [GWC].mp4\nSCREENS : &lt;a href=&quot;\nhttp://s15.postimg.org/pi4nbpkez/ed_13_22_07.jpg&quot; rel=&quot;nofollow&quot; target=&quot;_NEW&quot;&gt;\nhttp://s15.postimg.org/pi4nbpkez/ed_13_22_07.jpg&lt;/a&gt; &lt;a href=&quot;\nhttp://s15.postimg.org/u9947h2mz/ed_13_22_16.jpg&quot; rel=&quot;nofollow&quot; target=&quot;_NEW&quot;&gt;\nhttp://s15.postimg.org/u9947h2mz/ed_13_22_16.jpg&lt;/a&gt; &lt;a href=&quot;\nhttp://s15.postimg.org/fm85pt40r/ed_13_22_28.jpg&quot; rel=&quot;nofollow&quot; target=&quot;_NEW&quot;&gt;\nhttp://s15.postimg.org/fm85pt40r/ed_13_22_28.jpg&lt;/a&gt;\n\nMEDIA INFO :\n\nGeneral \nFormat : MPEG-4 \nCodec ID : isom \nFile size : 171 MiB \nDuration : 59mn 25s \nOverall bit rate mode : Variable \nOverall bit rate : 402 Kbps \n\nVideo \nID : 1 \nFormat : AVC \nFormat/Info : Advanced Video Codec \nFormat profile : &lt;a class=&quot;__cf_email__&quot; href=&quot;/cdn-cgi/l/email-protection&quot; data-cfemail=&quot;a7efcec0cfe7eb948997&quot;&gt;[email&amp;#160;protected]&lt;/a&gt;&lt;script cf-hash='f9e31' type=&quot;text/javascript&quot;&gt;\n/* &lt;![CDATA[ */!function(){try{var t=&quot;currentScript&quot;in document?document.currentScript:function(){for(var t=document.getElementsByTagName(&quot;script&quot;),e=t.length;e--;)if(t[e].getAttribute(&quot;cf-hash&quot;))return t[e]}();if(t&amp;&amp;t.previousSibling){var e,r,n,i,c=t.previousSibling,a=c.getAttribute(&quot;data-cfemail&quot;);if(a){for(e=&quot;&quot;,r=parseInt(a.substr(0,2),16),n=2;a.length-n;n+=2)i=parseInt(a.substr(n,2),16)^r,e+=String.fromCharCode(i);e=document.createTextNode(e),c.parentNode.replaceChild(e,c)}}}catch(u){}}();/* ]]&gt; */&lt;/script&gt; \nFormat settings, CABAC : Yes \nFormat settings, ReFrames : 4 frames \nCodec ID : avc1 \nCodec ID/Info : Advanced Video Coding \nDuration : 59mn 25s \nBit rate : 328 Kbps \nWidth : 720 pixels \nHeight : 404 pixels \nDisplay aspect ratio : 16:9 \nFrame rate : 23.976 fps \nStream size : 139 MiB\nTitle : The Newsroom 2012 S02E09 HDTV x264 AAC E-Subs [GWC]\nLanguage : English  \n\nAudio \nID : 2 \nFormat : AAC \nFormat/Info : Advanced Audio Codec \nFormat profile : LC  \nDuration : 59mn 25s \nBit rate mode : Variable \nChannel(s) : 2 channels \nChannel positions : Front: L R \nSampling rate : 44.1 KHz \nCompression mode : Lossy \nTitle : The Newsroom 2012 S02E09 HDTV x264 AAC E-Subs\nLanguage : English \n\nText \nID : 3 \nFormat : Timed Text \nDuration : 57mn 54s \nBit rate mode : Variable \nStream size : 58.4 KiB (0%) \nTitle : English Subtitle by icephoenix \nLanguage : English","torrent":{"xt":"urn:btih:d0426fcde3eb8038a0bbddbf0d1b139f831520ea","amp;dn":"The+Newsroom+2012+S02E09+HDTV+x264+AAC+E-Subs+%5BGWC%5D.mp4","amp;tr":["udp%3A%2F%2Ftracker.openbittorrent.com%3A80","udp%3A%2F%2Fopen.demonii.com%3A1337","udp%3A%2F%2Ftracker.coppersurfer.tk%3A6969","udp%3A%2F%2Fexodus.desync.com%3A6969"],"infoHash":"d0426fcde3eb8038a0bbddbf0d1b139f831520ea","infoHashBuffer":{"type":"Buffer","data":[208,66,111,205,227,235,128,56,160,187,221,191,13,27,19,159,131,21,32,234]},"announce":[],"urlList":[]}}